<?xml version="1.0" encoding="UTF-8"?>
<svg id="_レイヤー_2" data-name="レイヤー 2" xmlns="http://www.w3.org/2000/svg" viewBox="0 0 29.94 29.8">
  <defs>
    <style>
      .cls-1 {
        fill: #1a1a1a;
      }
    </style>
  </defs>
  <g id="_デザイン" data-name="デザイン">
    <g>
      <path class="cls-1" d="m22.5,20.7c-.63-.47-1.35-.88-2.11-1.24-.66-.3-1.33-.55-2.02-.74.53-.3,1.01-.67,1.44-1.1.63-.63,1.12-1.35,1.47-2.16.36-.84.54-1.73.54-2.65s-.18-1.81-.54-2.65c-.34-.81-.84-1.54-1.47-2.16-.63-.63-1.36-1.12-2.17-1.46-.84-.36-1.74-.54-2.66-.54s-1.82.18-2.66.54c-.81.34-1.55.83-2.17,1.46-.63.63-1.12,1.35-1.47,2.16-.36.84-.54,1.73-.54,2.65s.18,1.81.54,2.65c.34.81.84,1.54,1.47,2.16.44.44.93.81,1.47,1.11-.6.18-1.19.4-1.76.68-1.39.67-2.58,1.58-3.37,2.58-.23.3-.18.73.12.96.13.1.27.14.42.14.2,0,.41-.09.54-.26.31-.4.71-.79,1.18-1.15.51-.39,1.08-.74,1.7-1.04,1.4-.67,2.97-1.03,4.53-1.03s3.29.38,4.84,1.09c1.32.61,2.48,1.45,3.17,2.29.14.17.33.25.53.25.15,0,.31-.05.43-.15.29-.24.34-.67.1-.96-.41-.5-.92-.98-1.54-1.44Zm-12.57-5.78c-.28-.67-.43-1.38-.43-2.12s.14-1.45.43-2.12c.28-.65.67-1.23,1.17-1.73.5-.5,1.09-.89,1.74-1.17.67-.28,1.39-.43,2.13-.43s1.45.14,2.13.43c.65.27,1.24.67,1.74,1.17.5.5.9,1.08,1.17,1.73.28.67.43,1.38.43,2.12s-.14,1.45-.43,2.12c-.28.65-.67,1.23-1.17,1.73-.5.5-1.09.89-1.74,1.17-.67.28-1.39.43-2.13.43s-1.45-.14-2.13-.43c-.65-.27-1.24-.67-1.74-1.17-.5-.5-.9-1.08-1.17-1.73Z"/>
      <path class="cls-1" d="m29.63,11.9c-.2-.96-.49-1.9-.87-2.8-.38-.88-.84-1.73-1.38-2.53-.54-.79-1.15-1.53-1.83-2.2-.68-.67-1.42-1.29-2.21-1.82-.8-.54-1.66-1-2.54-1.37-.9-.38-1.85-.67-2.81-.87-.99-.2-2-.3-3.02-.3s-2.03.1-3.02.3c-.96.2-1.91.49-2.81.87-.89.37-1.74.84-2.54,1.37-.79.53-1.54,1.14-2.21,1.82-.68.67-1.29,1.42-1.83,2.2-.54.8-1.01,1.65-1.38,2.53-.38.9-.68,1.84-.87,2.8-.2.98-.3,1.99-.3,3s.1,2.02.3,3c.2.96.49,1.9.87,2.8.38.88.84,1.73,1.38,2.53.54.79,1.15,1.53,1.83,2.2.68.67,1.42,1.29,2.21,1.82.8.54,1.66,1,2.54,1.37.9.38,1.85.67,2.81.87.99.2,2,.3,3.02.3s2.03-.1,3.02-.3c.96-.2,1.91-.49,2.81-.87.89-.37,1.74-.84,2.54-1.37.79-.53,1.54-1.14,2.21-1.82.68-.67,1.29-1.42,1.83-2.2.54-.8,1.01-1.65,1.38-2.53.38-.9.68-1.84.87-2.8.2-.98.3-1.99.3-3s-.1-2.02-.3-3Zm-2.14,8.27c-.34.8-.76,1.57-1.25,2.3-.49.72-1.05,1.39-1.66,2s-1.29,1.17-2.01,1.65c-.73.49-1.5.91-2.31,1.25-1.68.71-3.46,1.06-5.29,1.06s-3.62-.36-5.29-1.06c-.81-.34-1.58-.76-2.31-1.25-.72-.48-1.4-1.04-2.01-1.65-.62-.61-1.17-1.29-1.66-2-.49-.72-.91-1.5-1.25-2.3-.71-1.67-1.07-3.44-1.07-5.27s.36-3.6,1.07-5.27c.34-.8.76-1.57,1.25-2.3.49-.72,1.05-1.39,1.66-2,.62-.61,1.29-1.17,2.01-1.65.73-.49,1.5-.91,2.31-1.25,1.68-.71,3.46-1.06,5.29-1.06s3.62.36,5.29,1.06c.81.34,1.58.76,2.31,1.25.72.48,1.4,1.04,2.01,1.65.62.61,1.17,1.29,1.66,2,.49.72.91,1.5,1.25,2.3.71,1.67,1.07,3.44,1.07,5.27s-.36,3.6-1.07,5.27Z"/>
    </g>
  </g>
</svg>