<?xml version="1.0" encoding="UTF-8"?>
<svg id="_レイヤー_2" data-name="レイヤー 2" xmlns="http://www.w3.org/2000/svg" viewBox="0 0 265.96 38.51">
  <defs>
    <style>
      .cls-1 {
        fill: #5eb74f;
      }

      .cls-2 {
        fill: #231815;
      }
    </style>
  </defs>
  <g id="_デザイン" data-name="デザイン">
    <g>
      <g>
        <path class="cls-1" d="m2.17,0h15.12l-.47,3.6H5.3l-.33,2.52h11.52l-.47,3.6H4.49l-1.38,10.44-3.11-3.6L2.17,0Zm19.15,15.84l1.28-9.72h-3.6l-1.28,9.72h3.6Zm1.61-12.24l.47-3.6h-3.6l-.47,3.6h3.6Zm9.91,12.24l1.61-12.24h5.4L40.32,0h-14.4l-.47,3.6h5.4l-1.61,12.24h3.6Z"/>
        <path class="cls-2" d="m16.59,24.47h11.52l.33-2.52h-11.52l.47-3.6h15.12l-1.28,9.72h-11.52l-.33,2.52h11.52l-.47,3.6h-15.12l1.28-9.72Zm27.3,14.04l4.07-3.6,2.18-16.56h-3.6l-1.14,8.64h-7.92l1.14-8.64h-3.6l-1.61,12.24h11.52l-1.04,7.92Z"/>
      </g>
      <g>
        <path class="cls-2" d="m118.71,5.75l-1.21,9.19c-.73,5.34-2.58,8.7-6.1,11.08-2.96,2.08-6.45,2.87-12.93,2.93h-8.46l.7-5.28h8.55c3.64-.03,6.66-.52,8.21-1.34,2.37-1.1,4.06-3.48,4.46-6.29l1.35-10.29h5.43Zm-25.07-2.53c5.25,1.4,10.85,3.14,13.43,4.18l-.72,5.5c-4.52-1.62-9.59-3.24-13.42-4.27l.71-5.4Z"/>
        <path class="cls-2" d="m130.06,3.04l-1.08,8.18,2.47.7c1.62.49,3.23.95,4.85,1.4,1.24.34,2.56.76,6.01,1.86l-.76,5.77c-3.1-1.28-7.28-2.66-13.28-4.4l-1.71,13.01h-5.65l3.49-26.53h5.65Zm10.4-.15l-.61,4.64h-2.87l.61-4.64h2.87Zm3.82,0l-.61,4.64h-2.84l.61-4.64h2.84Z"/>
        <path class="cls-2" d="m149.28,3.58h24.94l-.88,6.72c-.58,5.07-3.85,7.91-9.33,8.03h-2.2c-.73,4.64-1.37,6.23-3.18,8.18-1.87,1.92-4.32,2.93-7.04,2.9h-5.68l.65-4.95h3.88c4.09.03,5.23-1.01,5.79-5.28l.76-5.77h7.42c2.39-.09,3.4-.98,3.73-3.3l.18-1.34h-19.72l.68-5.19Z"/>
        <path class="cls-2" d="m197.78,5.57l-.19,1.44h2.32c2.05-.06,3.14,1.16,2.88,3.21l-2.42,18.35h-24.45l.66-5.04h18.99l1.34-10.17c.38-2.17-.06-2.81-1.94-2.87h-16.67l.65-4.91h18.84Zm4.29-4.03l-.62,4.73h-2.87l.62-4.73h2.87Zm.89,0h2.9l-.62,4.73h-2.9l.62-4.73Z"/>
        <path class="cls-2" d="m218.2,3.04l-1.75,13.28c-.9,7.76-4.82,12.49-11.03,13.28l.76-5.8c3.08-.89,4.24-2.53,5.01-6.99l1.81-13.77h5.19Zm3.36,0h5.28l-2.65,20.12c4.27-.21,4.92-.98,5.77-6.93l.94-7.14h5.13l-1.04,7.88c-.68,5.13-1.59,7.42-3.68,9.19-2.19,1.8-4.51,2.47-8.51,2.5h-4.61l3.37-25.61Z"/>
        <path class="cls-2" d="m241.38,4.38l-.68,5.19h18.81l-.48,3.66c-.77,4.89-1.57,7.08-3.21,8.58-1.58,1.59-3.29,2.05-7.72,2.08h-.98l-6.1,5.37h7.07c5.8,0,9.7-1.34,12.38-4.31,2.17-2.32,3.49-5.86,4.31-11.63l1.18-8.95h-24.58Z"/>
        <path class="cls-2" d="m83.78,2.76l-.11.82c-.27,2.01-.81,2.66-3.18,3.72l-17.89,7.91-.79,6.01,11.68-5.47-1.27,11.22,4.88,5.64h.03l2.39-19.73,4.98-2.35c2.87-1.37,4.4-3.54,4.72-6.59l.16-1.19h-5.59Z"/>
      </g>
    </g>
  </g>
</svg>