<?xml version="1.0" encoding="UTF-8"?>
<svg id="_レイヤー_2" data-name="レイヤー 2" xmlns="http://www.w3.org/2000/svg" viewBox="0 0 218.5 58.26">
  <defs>
    <style>
      .cls-1 {
        fill: #5eb74f;
      }
    </style>
  </defs>
  <g id="_デザイン" data-name="デザイン">
    <g>
      <path class="cls-1" d="m6.28,0h43.69l-1.37,10.4H15.31l-.96,7.28h33.29l-1.37,10.4H12.98l-3.99,30.17L0,47.85,6.28,0Zm55.35,45.77l3.7-28.09h-10.4l-3.7,28.09h10.4Zm4.66-35.37l1.37-10.4h-10.4l-1.37,10.4h10.4Zm28.63,35.37l4.66-35.37h15.6L116.55,0h-41.61l-1.37,10.4h15.6l-4.66,35.37h10.4Z"/>
      <path d="m121.51,17.69h33.29l.96-7.28h-33.29l1.37-10.4h43.69l-3.7,28.09h-33.29l-.96,7.28h33.29l-1.37,10.4h-43.69l3.7-28.09Zm78.92,40.57l11.77-10.4L218.5,0h-10.4l-3.29,24.97h-22.89l3.29-24.97h-10.4l-4.66,35.37h33.29l-3.01,22.89Z"/>
    </g>
  </g>
</svg>